<mxfile host="app.diagrams.net" modified="2023-12-21T21:44:33.594Z" agent="Mozilla/5.0 (Windows NT 10.0; Win64; x64) AppleWebKit/537.36 (KHTML, like Gecko) Chrome/120.0.0.0 Safari/537.36 Edg/120.0.0.0" etag="KQtjSdSrULfmtb3JxHHl" version="22.1.11" type="device">
  <diagram name="Страница — 1" id="FdxyIYY-I3Q8wmNd25-F">
    <mxGraphModel dx="1556" dy="919" grid="1" gridSize="10" guides="1" tooltips="1" connect="1" arrows="1" fold="1" page="1" pageScale="1" pageWidth="827" pageHeight="1169" math="0" shadow="0">
      <root>
        <mxCell id="0" />
        <mxCell id="1" parent="0" />
        <mxCell id="Teh7uplQ-Z0Z1HvnALhh-6" value="&lt;p style=&quot;margin:0px;margin-top:4px;text-align:center;&quot;&gt;&lt;b&gt;menu&lt;/b&gt;&lt;/p&gt;&lt;hr size=&quot;1&quot;&gt;&lt;p style=&quot;margin:0px;margin-left:4px;&quot;&gt;choice: int&lt;/p&gt;&lt;p style=&quot;margin:0px;margin-left:4px;&quot;&gt;pointAmount: int&lt;/p&gt;&lt;p style=&quot;margin:0px;margin-left:4px;&quot;&gt;start: COORD&lt;/p&gt;&lt;p style=&quot;margin:0px;margin-left:4px;&quot;&gt;end: COORD&lt;/p&gt;&lt;hr size=&quot;1&quot;&gt;&lt;p style=&quot;margin:0px;margin-left:4px;&quot;&gt;getMenu():&amp;nbsp;struct menu*&lt;/p&gt;&lt;p style=&quot;margin:0px;margin-left:4px;&quot;&gt;showMenu(): void&lt;br&gt;&lt;/p&gt;&lt;p style=&quot;margin:0px;margin-left:4px;&quot;&gt;printItem(): void&lt;/p&gt;&lt;p style=&quot;margin:0px;margin-left:4px;&quot;&gt;runMenu(): int&lt;/p&gt;&lt;p style=&quot;margin:0px;margin-left:4px;&quot;&gt;clearMenu(): int&lt;/p&gt;&lt;p style=&quot;margin:0px;margin-left:4px;&quot;&gt;runSubMenu(): int&lt;/p&gt;&lt;p style=&quot;margin:0px;margin-left:4px;&quot;&gt;printMenuBorders(): void&lt;/p&gt;" style="verticalAlign=top;align=left;overflow=fill;fontSize=12;fontFamily=Helvetica;html=1;whiteSpace=wrap;" vertex="1" parent="1">
          <mxGeometry x="334" y="20" width="160" height="210" as="geometry" />
        </mxCell>
        <mxCell id="Teh7uplQ-Z0Z1HvnALhh-7" value="scrollMenu" style="swimlane;fontStyle=1;align=center;verticalAlign=top;childLayout=stackLayout;horizontal=1;startSize=26;horizontalStack=0;resizeParent=1;resizeParentMax=0;resizeLast=0;collapsible=1;marginBottom=0;whiteSpace=wrap;html=1;" vertex="1" parent="1">
          <mxGeometry x="170" y="280" width="210" height="230" as="geometry" />
        </mxCell>
        <mxCell id="Teh7uplQ-Z0Z1HvnALhh-8" value="menu: struct menu*&lt;br&gt;buffer:&amp;nbsp; struct student*&lt;br&gt;bufferPointAmount: int&lt;br&gt;maxPoints: int&lt;br&gt;page: int&lt;br&gt;printStudentsMode: int" style="text;strokeColor=none;fillColor=none;align=left;verticalAlign=top;spacingLeft=4;spacingRight=4;overflow=hidden;rotatable=0;points=[[0,0.5],[1,0.5]];portConstraint=eastwest;whiteSpace=wrap;html=1;" vertex="1" parent="Teh7uplQ-Z0Z1HvnALhh-7">
          <mxGeometry y="26" width="210" height="94" as="geometry" />
        </mxCell>
        <mxCell id="Teh7uplQ-Z0Z1HvnALhh-9" value="" style="line;strokeWidth=1;fillColor=none;align=left;verticalAlign=middle;spacingTop=-1;spacingLeft=3;spacingRight=3;rotatable=0;labelPosition=right;points=[];portConstraint=eastwest;strokeColor=inherit;" vertex="1" parent="Teh7uplQ-Z0Z1HvnALhh-7">
          <mxGeometry y="120" width="210" height="8" as="geometry" />
        </mxCell>
        <mxCell id="Teh7uplQ-Z0Z1HvnALhh-10" value="getScrollMenu(): struct scrollMenu*&lt;br&gt;updateScrollMenu(): void&lt;br&gt;runScrollMenu(): int&lt;br&gt;getAmountOfElementsOnPage(): int&lt;br&gt;printHeader(): void&lt;br&gt;clearHeader(): void" style="text;strokeColor=none;fillColor=none;align=left;verticalAlign=top;spacingLeft=4;spacingRight=4;overflow=hidden;rotatable=0;points=[[0,0.5],[1,0.5]];portConstraint=eastwest;whiteSpace=wrap;html=1;" vertex="1" parent="Teh7uplQ-Z0Z1HvnALhh-7">
          <mxGeometry y="128" width="210" height="102" as="geometry" />
        </mxCell>
        <mxCell id="Teh7uplQ-Z0Z1HvnALhh-12" value="studentMenu" style="swimlane;fontStyle=1;align=center;verticalAlign=top;childLayout=stackLayout;horizontal=1;startSize=26;horizontalStack=0;resizeParent=1;resizeParentMax=0;resizeLast=0;collapsible=1;marginBottom=0;whiteSpace=wrap;html=1;" vertex="1" parent="1">
          <mxGeometry x="450" y="280" width="220" height="120" as="geometry" />
        </mxCell>
        <mxCell id="Teh7uplQ-Z0Z1HvnALhh-13" value="menu: struct menu&lt;br&gt;student: struct student*" style="text;strokeColor=none;fillColor=none;align=left;verticalAlign=top;spacingLeft=4;spacingRight=4;overflow=hidden;rotatable=0;points=[[0,0.5],[1,0.5]];portConstraint=eastwest;whiteSpace=wrap;html=1;" vertex="1" parent="Teh7uplQ-Z0Z1HvnALhh-12">
          <mxGeometry y="26" width="220" height="34" as="geometry" />
        </mxCell>
        <mxCell id="Teh7uplQ-Z0Z1HvnALhh-14" value="" style="line;strokeWidth=1;fillColor=none;align=left;verticalAlign=middle;spacingTop=-1;spacingLeft=3;spacingRight=3;rotatable=0;labelPosition=right;points=[];portConstraint=eastwest;strokeColor=inherit;" vertex="1" parent="Teh7uplQ-Z0Z1HvnALhh-12">
          <mxGeometry y="60" width="220" height="8" as="geometry" />
        </mxCell>
        <mxCell id="Teh7uplQ-Z0Z1HvnALhh-15" value="getStudentMenu(): struct studentMenu*&lt;br&gt;updateStudentMenu(): void&lt;br&gt;changeStudentMenu(): void" style="text;strokeColor=none;fillColor=none;align=left;verticalAlign=top;spacingLeft=4;spacingRight=4;overflow=hidden;rotatable=0;points=[[0,0.5],[1,0.5]];portConstraint=eastwest;whiteSpace=wrap;html=1;" vertex="1" parent="Teh7uplQ-Z0Z1HvnALhh-12">
          <mxGeometry y="68" width="220" height="52" as="geometry" />
        </mxCell>
        <mxCell id="Teh7uplQ-Z0Z1HvnALhh-24" value="" style="endArrow=none;html=1;endSize=12;startArrow=diamondThin;startSize=14;startFill=0;edgeStyle=orthogonalEdgeStyle;align=left;verticalAlign=bottom;rounded=0;entryX=0.5;entryY=1;entryDx=0;entryDy=0;exitX=0.5;exitY=0;exitDx=0;exitDy=0;endFill=0;" edge="1" parent="1" source="Teh7uplQ-Z0Z1HvnALhh-7" target="Teh7uplQ-Z0Z1HvnALhh-6">
          <mxGeometry x="-1" y="3" relative="1" as="geometry">
            <mxPoint x="80" y="470" as="sourcePoint" />
            <mxPoint x="240" y="470" as="targetPoint" />
          </mxGeometry>
        </mxCell>
        <mxCell id="Teh7uplQ-Z0Z1HvnALhh-28" value="" style="endArrow=none;html=1;endSize=12;startArrow=diamondThin;startSize=14;startFill=0;edgeStyle=orthogonalEdgeStyle;align=left;verticalAlign=bottom;rounded=0;endFill=0;exitX=0.5;exitY=0;exitDx=0;exitDy=0;" edge="1" parent="1" source="Teh7uplQ-Z0Z1HvnALhh-12">
          <mxGeometry x="-1" y="3" relative="1" as="geometry">
            <mxPoint x="490" y="550" as="sourcePoint" />
            <mxPoint x="414" y="230" as="targetPoint" />
            <Array as="points">
              <mxPoint x="560" y="255" />
              <mxPoint x="414" y="255" />
            </Array>
          </mxGeometry>
        </mxCell>
      </root>
    </mxGraphModel>
  </diagram>
</mxfile>
